# xmcd
#
# Track frame offsets: 
#        150
#        17767
#        35181
#        55749
#        70647
#        91331
#        113174
#        131151
#        152517
#        171391
#
# Disc length: 2539 seconds
#
# Revision: 0
# Processed by: cddbd v1.5.2PL0 Copyright (c) Steve Scherf et al.
# Submitted via: ExactAudioCopyFreeDBPlugin 1.0
#
DISCID=8209e90a
DTITLE=Kid Rock - Sweet Southern Sugar
DYEAR=2017
DGENRE=
TTITLE0=Greatest Show on Earth
TTITLE1=Po-Dunk
TTITLE2=Tennessee Mountain Top
TTITLE3=I Wonder
TTITLE4=American Rock 'n Roll
TTITLE5=Back To The Otherside
TTITLE6=Raining Whiskey
TTITLE7=Stand The Pain
TTITLE8=Sugar Pie Honey Bunch
TTITLE9=Grandpa's Jam
EXTD=
EXTT0=
EXTT1=
EXTT2=
EXTT3=
EXTT4=
EXTT5=
EXTT6=
EXTT7=
EXTT8=
EXTT9=
PLAYORDER=
